<svg width="42" height="43" viewBox="0 0 42 43" fill="current" xmlns="http://www.w3.org/2000/svg">
<g filter="url(#filter0_d_151_27)">
<circle cx="21" cy="21.2" r="12" fill="current"/>
</g>
<path d="M21.9301 24.7324H19.5961C19.6026 24.14 19.6514 23.6322 19.7426 23.209C19.8402 22.7858 19.9997 22.4049 20.2211 22.0664C20.4424 21.7214 20.7419 21.3698 21.1195 21.0117C21.419 20.7318 21.6859 20.4681 21.9203 20.2207C22.1612 19.9668 22.35 19.7031 22.4867 19.4297C22.6234 19.1497 22.6918 18.834 22.6918 18.4824C22.6918 18.0853 22.6267 17.7533 22.4965 17.4863C22.3728 17.2194 22.1872 17.0176 21.9398 16.8809C21.699 16.7376 21.3962 16.666 21.0316 16.666C20.7322 16.666 20.449 16.7279 20.182 16.8516C19.9151 16.9753 19.7003 17.1673 19.5375 17.4277C19.3747 17.6816 19.2868 18.0137 19.2738 18.4238H16.6859C16.7055 17.571 16.9073 16.8613 17.2914 16.2949C17.6755 15.722 18.1931 15.2956 18.8441 15.0156C19.4952 14.7292 20.2243 14.5859 21.0316 14.5859C21.9236 14.5859 22.6853 14.7357 23.3168 15.0352C23.9548 15.3281 24.4398 15.7578 24.7719 16.3242C25.1104 16.8906 25.2797 17.5742 25.2797 18.375C25.2797 18.9479 25.169 19.4622 24.9477 19.918C24.7263 20.3672 24.4333 20.7871 24.0687 21.1777C23.7042 21.5684 23.3103 21.9622 22.8871 22.3594C22.516 22.6914 22.2654 23.0462 22.1352 23.4238C22.0049 23.8014 21.9366 24.2376 21.9301 24.7324ZM19.352 27.7695C19.352 27.3789 19.4822 27.0534 19.7426 26.793C20.0095 26.5326 20.3676 26.4023 20.8168 26.4023C21.266 26.4023 21.6208 26.5326 21.8812 26.793C22.1482 27.0534 22.2816 27.3789 22.2816 27.7695C22.2816 28.1471 22.1482 28.4661 21.8812 28.7266C21.6208 28.987 21.266 29.1172 20.8168 29.1172C20.3676 29.1172 20.0095 28.987 19.7426 28.7266C19.4822 28.4661 19.352 28.1471 19.352 27.7695Z" fill="white"/>
</svg>
